<?xml version="1.0" standalone="no"?>
<!DOCTYPE svg PUBLIC "-//W3C//DTD SVG 20010904//EN"
 "http://www.w3.org/TR/2001/REC-SVG-20010904/DTD/svg10.dtd">
<svg version="1.0" xmlns="http://www.w3.org/2000/svg"
 width="75.000000pt" height="62.000000pt" viewBox="0 0 75.000000 62.000000"
 preserveAspectRatio="xMidYMid meet">

<g transform="translate(0.000000,62.000000) scale(0.100000,-0.100000)"
fill="#000000" stroke="none">
<path d="M20 606 c0 -2 28 -22 63 -45 l63 -41 234 7 234 6 61 39 60 38 -357 0
c-197 0 -358 -2 -358 -4z"/>
<path d="M637 532 c-16 -9 -51 -55 -79 -102 -27 -47 -61 -99 -74 -117 -13 -17
-24 -34 -24 -38 0 -3 -17 -34 -39 -68 -32 -51 -40 -74 -44 -131 -4 -38 -4 -67
-2 -64 13 12 203 338 195 333 -6 -3 -7 1 -4 9 3 9 11 13 17 9 6 -3 7 -1 3 5
-4 7 4 27 17 44 28 38 60 98 52 98 -3 0 -1 9 5 20 13 24 13 24 -23 2z"/>
<path d="M309 471 c20 -13 29 -160 10 -172 -9 -6 2 -9 30 -9 38 0 42 2 28 13
-14 10 -17 26 -15 95 l3 82 -35 0 c-24 0 -31 -3 -21 -9z"/>
<path d="M418 468 c17 -17 15 -58 -4 -65 -14 -5 -14 -7 -1 -15 9 -4 19 -22 22
-40 6 -24 3 -35 -11 -45 -27 -19 6 -17 34 3 28 20 28 58 0 79 -21 15 -22 17
-5 26 34 20 10 69 -34 69 -10 0 -10 -3 -1 -12z"/>
</g>
</svg>
